<?xml version="1.0" encoding="UTF-8" standalone="no"?> <!-- Created with Vectornator for iOS (http://vectornator.io/) --><!DOCTYPE svg PUBLIC "-//W3C//DTD SVG 1.1//EN" "http://www.w3.org/Graphics/SVG/1.1/DTD/svg11.dtd">
<svg style="fill-rule:evenodd;clip-rule:evenodd;stroke-linecap:round;stroke-linejoin:round;" xmlns:vectornator="http://vectornator.io" xmlns:xlink="http://www.w3.org/1999/xlink" xmlns="http://www.w3.org/2000/svg" xml:space="preserve" version="1.1" viewBox="0 0 1024 1024">
<metadata>
<vectornator:setting key="DisplayWhiteBackground" value="0"/>
<vectornator:setting key="RulersVisible" value="1"/>
<vectornator:setting key="SnapToEdges" value="0"/>
<vectornator:setting key="Units" value="Pixels"/>
<vectornator:setting key="DynamicGuides" value="0"/>
<vectornator:setting key="SnapToPoints" value="0"/>
<vectornator:setting key="CMYKEnabledKey" value="0"/>
<vectornator:setting key="SnapToGrid" value="0"/>
<vectornator:setting key="SnapToGuides" value="1"/>
<vectornator:setting key="ShowGrid" value="1"/>
<vectornator:setting key="GridSpacing" value="60"/>
</metadata>
<defs>
<radialGradient cx="512" r="512" id="RadialGradient" gradientUnits="userSpaceOnUse" gradientTransform="matrix(1 0 0 1 0 0)" cy="512">
<stop stop-color="#ff9600" offset="0"/>
<stop stop-color="#ff4d00" offset="0.639113"/>
<stop stop-color="#ff8100" offset="0.721774"/>
<stop stop-color="#ff4700" offset="1"/>
</radialGradient>
</defs>
<g id="Layer 1" vectornator:layerName="Layer 1">
<path d="M80+0L944+0C988.183+0+1024+35.8172+1024+80L1024+944C1024+988.183+988.183+1024+944+1024L80+1024C35.8172+1024+0+988.183+0+944L0+80C0+35.8172+35.8172+0+80+0Z" opacity="1" fill="url(#RadialGradient)"/>
<g opacity="1">
<path d="M268.588+651.109C276.137+651.109+282.607+648.817+287.999+644.234C293.391+639.463+296.087+633.804+296.087+627.256L296.087+339.901C296.087+333.26+293.391+327.6+287.999+322.923C282.607+318.246+276.137+315.908+268.588+315.908L268.588+651.109ZM378.911+794.787C371.362+794.787+364.837+792.448+359.337+787.771C354.053+783.001+351.411+777.341+351.411+770.794L351.411+722.948C351.411+729.496+348.715+735.108+343.323+739.785C337.823+744.462+331.298+746.801+323.749+746.801C316.092+746.801+309.568+744.462+304.176+739.785C298.783+735.108+296.087+729.496+296.087+722.948L296.087+674.962C296.087+681.603+293.391+687.262+287.999+691.939C282.607+696.616+276.137+698.955+268.588+698.955C260.931+698.955+254.406+696.616+249.014+691.939C243.622+687.262+240.926+681.603+240.926+674.962L240.926+315.908C240.926+302.719+246.318+291.447+257.102+282.093C267.887+272.739+280.882+268.062+296.087+268.062L351.411+268.062C366.617+268.062+379.612+272.739+390.396+282.093C401.18+291.447+406.572+302.719+406.572+315.908C406.572+302.719+411.964+291.447+422.749+282.093C433.533+272.739+446.528+268.062+461.734+268.062L517.057+268.062C532.263+268.062+545.258+272.739+556.042+282.093C566.826+291.447+572.219+302.719+572.219+315.908C572.219+302.719+577.611+291.447+588.395+282.093C599.179+272.739+612.174+268.062+627.38+268.062L737.865+268.062C753.071+268.062+766.066+272.739+776.85+282.093C787.634+291.447+793.026+302.719+793.026+315.908L793.026+674.962C793.026+681.603+790.33+687.262+784.938+691.939C779.546+696.616+773.075+698.955+765.526+698.955C757.87+698.955+751.345+696.616+745.953+691.939C740.561+687.262+737.865+681.603+737.865+674.962L737.865+363.754L627.38+363.754L627.38+722.948C627.38+729.496+624.684+735.108+619.292+739.785C613.9+744.462+607.429+746.801+599.88+746.801C592.223+746.801+585.699+744.462+580.307+739.785C574.915+735.108+572.219+729.496+572.219+722.948L572.219+674.962C572.219+681.603+569.522+687.262+564.13+691.939C558.738+696.616+552.214+698.955+544.557+698.955C537.008+698.955+530.483+696.616+524.983+691.939C519.699+687.262+517.057+681.603+517.057+674.962L517.057+363.754L406.572+363.754L406.572+770.794C406.572+777.341+403.876+783.001+398.484+787.771C393.092+792.448+386.567+794.787+378.911+794.787Z" opacity="1" fill="#000000"/>
</g>
</g>
</svg>
